<?xml version="1.0" encoding="UTF-8"?> <!-- Generator: Adobe Illustrator 23.1.1, SVG Export Plug-In . SVG Version: 6.00 Build 0) --> <svg xmlns="http://www.w3.org/2000/svg" xmlns:xlink="http://www.w3.org/1999/xlink" id="Layer_1" x="0px" y="0px" viewBox="0 0 2834.6 2834.6" style="enable-background:new 0 0 2834.6 2834.6;" xml:space="preserve"> <g> <path d="M1585,875.6h-438.4v531.8h117.4v-402.8h321c234.8,0,426,181.4,426,404.6s-191.2,404.6-426,404.6H838.8L677,1942.7h908 c305.9,0,555.8-239.2,555.8-533.6S1890.9,875.6,1585,875.6z"></path> <path d="M1878.4,1409.2c0-150.3-131.6-272.1-293.5-272.1h-188.5v270.3h120.9v-140.5h67.6c90.7,0,164.5,64,164.5,143.2 c0,79.1-73.8,143.2-164.5,143.2h-457.1L966,1682.2h619.8C1746.8,1681.3,1878.4,1559.5,1878.4,1409.2z"></path> </g> </svg> 